<svg width="823" height="260" viewBox="0 0 823 260" fill="none" xmlns="http://www.w3.org/2000/svg">
<rect width="823" height="260" fill="white"/>
<rect x="270" y="76" width="66" height="73" fill="#1EFF1A"/>
<path d="M182.697 76.2727V149H167.321V76.2727H182.697ZM256.179 76.2727V149H242.898L211.257 103.226H210.725V149H195.348V76.2727H208.843L240.235 122.011H240.874V76.2727H256.179ZM338.317 149V76.2727H387.323V88.9503H353.694V106.28H384.801V118.957H353.694V136.322H387.465V149H338.317ZM399.548 149V76.2727H414.924V108.339H415.883L442.055 76.2727H460.485L433.496 108.837L460.805 149H442.41L422.488 119.099L414.924 128.332V149H399.548ZM531.224 112.636C531.224 120.567 529.72 127.314 526.714 132.878C523.731 138.441 519.659 142.691 514.498 145.626C509.361 148.538 503.584 149.994 497.168 149.994C490.705 149.994 484.905 148.527 479.768 145.591C474.63 142.655 470.57 138.406 467.587 132.842C464.604 127.279 463.113 120.544 463.113 112.636C463.113 104.705 464.604 97.9583 467.587 92.3949C470.57 86.8314 474.63 82.5937 479.768 79.6818C484.905 76.7462 490.705 75.2784 497.168 75.2784C503.584 75.2784 509.361 76.7462 514.498 79.6818C519.659 82.5937 523.731 86.8314 526.714 92.3949C529.72 97.9583 531.224 104.705 531.224 112.636ZM515.634 112.636C515.634 107.499 514.865 103.167 513.326 99.6392C511.811 96.1117 509.668 93.4366 506.898 91.6136C504.129 89.7907 500.885 88.8793 497.168 88.8793C493.451 88.8793 490.208 89.7907 487.438 91.6136C484.668 93.4366 482.514 96.1117 480.975 99.6392C479.46 103.167 478.702 107.499 478.702 112.636C478.702 117.774 479.46 122.106 480.975 125.634C482.514 129.161 484.668 131.836 487.438 133.659C490.208 135.482 493.451 136.393 497.168 136.393C500.885 136.393 504.129 135.482 506.898 133.659C509.668 131.836 511.811 129.161 513.326 125.634C514.865 122.106 515.634 117.774 515.634 112.636ZM582.067 97.1889C581.783 94.3243 580.564 92.099 578.409 90.5128C576.255 88.9266 573.331 88.1335 569.638 88.1335C567.129 88.1335 565.01 88.4886 563.282 89.1989C561.553 89.8854 560.228 90.8442 559.304 92.0753C558.405 93.3063 557.955 94.7031 557.955 96.2656C557.908 97.5677 558.18 98.7041 558.772 99.6747C559.387 100.645 560.228 101.486 561.293 102.196C562.358 102.883 563.589 103.486 564.986 104.007C566.383 104.504 567.874 104.93 569.461 105.286L575.995 106.848C579.167 107.558 582.079 108.505 584.73 109.689C587.382 110.873 589.678 112.329 591.62 114.057C593.561 115.785 595.064 117.821 596.13 120.165C597.219 122.509 597.775 125.196 597.799 128.226C597.775 132.677 596.639 136.536 594.39 139.803C592.164 143.046 588.944 145.567 584.73 147.366C580.54 149.142 575.486 150.03 569.567 150.03C563.696 150.03 558.582 149.13 554.226 147.331C549.894 145.532 546.508 142.868 544.07 139.341C541.655 135.79 540.389 131.398 540.27 126.166H555.15C555.315 128.605 556.014 130.641 557.245 132.274C558.499 133.884 560.168 135.103 562.252 135.932C564.359 136.737 566.738 137.139 569.39 137.139C571.994 137.139 574.255 136.76 576.172 136.003C578.114 135.245 579.617 134.192 580.682 132.842C581.748 131.493 582.28 129.942 582.28 128.19C582.28 126.557 581.795 125.184 580.824 124.071C579.877 122.958 578.48 122.011 576.634 121.23C574.811 120.449 572.574 119.739 569.922 119.099L562.003 117.111C555.872 115.619 551.03 113.287 547.479 110.115C543.928 106.943 542.164 102.67 542.188 97.2955C542.164 92.892 543.336 89.045 545.703 85.7543C548.095 82.4635 551.373 79.8949 555.54 78.0483C559.707 76.2017 564.442 75.2784 569.745 75.2784C575.142 75.2784 579.854 76.2017 583.878 78.0483C587.926 79.8949 591.075 82.4635 593.324 85.7543C595.573 89.045 596.733 92.8565 596.804 97.1889H582.067ZM605.371 88.9503V76.2727H665.102V88.9503H642.836V149H627.637V88.9503H605.371Z" fill="#1E1E1E"/>
<path d="M295.102 149H269.321V76.2727H295.315C302.631 76.2727 308.928 77.7287 314.207 80.6406C319.487 83.5289 323.547 87.6837 326.388 93.1051C329.252 98.5265 330.685 105.013 330.685 112.565C330.685 120.141 329.252 126.652 326.388 132.097C323.547 137.542 319.463 141.72 314.136 144.632C308.833 147.544 302.489 149 295.102 149ZM284.697 135.825H294.463C299.009 135.825 302.832 135.02 305.933 133.411C309.058 131.777 311.402 129.256 312.964 125.847C314.551 122.414 315.344 117.987 315.344 112.565C315.344 107.191 314.551 102.8 312.964 99.3906C311.402 95.9815 309.07 93.4721 305.969 91.8622C302.867 90.2524 299.044 89.4474 294.499 89.4474H284.697V135.825Z" fill="white"/>
<path d="M235.518 187.277H232.195C232.067 186.567 231.829 185.942 231.481 185.402C231.133 184.862 230.707 184.404 230.202 184.028C229.698 183.651 229.134 183.367 228.509 183.175C227.891 182.984 227.234 182.888 226.538 182.888C225.281 182.888 224.155 183.204 223.161 183.836C222.173 184.468 221.392 185.395 220.817 186.616C220.249 187.838 219.964 189.33 219.964 191.091C219.964 192.866 220.249 194.365 220.817 195.587C221.392 196.808 222.177 197.732 223.171 198.357C224.165 198.982 225.284 199.294 226.527 199.294C227.216 199.294 227.869 199.202 228.487 199.017C229.112 198.825 229.677 198.545 230.181 198.175C230.685 197.806 231.112 197.355 231.46 196.822C231.815 196.283 232.06 195.665 232.195 194.969L235.518 194.979C235.341 196.052 234.996 197.039 234.485 197.941C233.981 198.836 233.331 199.61 232.536 200.263C231.747 200.91 230.845 201.411 229.83 201.766C228.814 202.121 227.706 202.298 226.506 202.298C224.616 202.298 222.933 201.851 221.456 200.956C219.979 200.054 218.814 198.765 217.962 197.089C217.116 195.413 216.694 193.413 216.694 191.091C216.694 188.761 217.12 186.762 217.972 185.093C218.825 183.417 219.989 182.131 221.467 181.237C222.944 180.335 224.624 179.884 226.506 179.884C227.663 179.884 228.743 180.05 229.744 180.384C230.753 180.711 231.658 181.194 232.461 181.833C233.263 182.465 233.928 183.239 234.453 184.156C234.979 185.065 235.334 186.105 235.518 187.277ZM243.964 202.362C242.927 202.362 241.99 202.17 241.151 201.787C240.313 201.396 239.649 200.832 239.159 200.093C238.676 199.354 238.435 198.449 238.435 197.376C238.435 196.453 238.612 195.693 238.968 195.097C239.323 194.5 239.802 194.028 240.406 193.68C241.009 193.332 241.684 193.069 242.43 192.891C243.176 192.714 243.936 192.579 244.71 192.487C245.69 192.373 246.485 192.281 247.096 192.21C247.707 192.131 248.151 192.007 248.428 191.837C248.705 191.666 248.843 191.389 248.843 191.006V190.931C248.843 190.001 248.58 189.28 248.055 188.768C247.536 188.257 246.762 188.001 245.732 188.001C244.66 188.001 243.815 188.239 243.197 188.715C242.586 189.184 242.164 189.706 241.929 190.281L238.936 189.599C239.291 188.605 239.809 187.803 240.491 187.192C241.18 186.574 241.972 186.126 242.867 185.849C243.762 185.565 244.703 185.423 245.69 185.423C246.343 185.423 247.036 185.501 247.767 185.658C248.506 185.807 249.195 186.084 249.834 186.489C250.48 186.893 251.009 187.472 251.421 188.225C251.833 188.971 252.039 189.94 252.039 191.134V202H248.928V199.763H248.801C248.595 200.175 248.286 200.58 247.874 200.977C247.462 201.375 246.933 201.705 246.286 201.968C245.64 202.231 244.866 202.362 243.964 202.362ZM244.656 199.805C245.537 199.805 246.29 199.631 246.915 199.283C247.547 198.935 248.026 198.481 248.353 197.92C248.687 197.352 248.854 196.744 248.854 196.098V193.989C248.74 194.102 248.52 194.209 248.193 194.308C247.874 194.401 247.508 194.482 247.096 194.553C246.684 194.617 246.283 194.678 245.892 194.734C245.502 194.784 245.175 194.827 244.912 194.862C244.294 194.94 243.73 195.072 243.218 195.256C242.714 195.441 242.309 195.707 242.004 196.055C241.705 196.396 241.556 196.851 241.556 197.419C241.556 198.207 241.847 198.804 242.43 199.209C243.012 199.607 243.754 199.805 244.656 199.805ZM256.282 202V185.636H259.361V188.236H259.531C259.83 187.355 260.355 186.663 261.108 186.158C261.868 185.647 262.727 185.391 263.686 185.391C263.885 185.391 264.119 185.398 264.389 185.413C264.666 185.427 264.883 185.445 265.039 185.466V188.513C264.911 188.477 264.684 188.438 264.357 188.396C264.031 188.346 263.704 188.321 263.377 188.321C262.624 188.321 261.953 188.481 261.364 188.8C260.781 189.113 260.32 189.55 259.979 190.111C259.638 190.665 259.467 191.297 259.467 192.007V202H256.282ZM267.796 202V185.636H270.981V202H267.796ZM269.404 183.112C268.85 183.112 268.374 182.927 267.977 182.558C267.586 182.181 267.391 181.734 267.391 181.215C267.391 180.69 267.586 180.242 267.977 179.873C268.374 179.496 268.85 179.308 269.404 179.308C269.958 179.308 270.431 179.496 270.821 179.873C271.219 180.242 271.418 180.69 271.418 181.215C271.418 181.734 271.219 182.181 270.821 182.558C270.431 182.927 269.958 183.112 269.404 183.112ZM283.461 202V180.182H286.753V190.601H287.02L296.171 180.182H300.315L291.515 190.004L300.347 202H296.384L289.331 192.252L286.753 195.214V202H283.461ZM308.819 202.33C307.285 202.33 305.946 201.979 304.803 201.276C303.659 200.572 302.772 199.589 302.14 198.325C301.507 197.06 301.191 195.583 301.191 193.893C301.191 192.195 301.507 190.711 302.14 189.44C302.772 188.168 303.659 187.181 304.803 186.478C305.946 185.775 307.285 185.423 308.819 185.423C310.353 185.423 311.692 185.775 312.836 186.478C313.979 187.181 314.867 188.168 315.499 189.44C316.131 190.711 316.447 192.195 316.447 193.893C316.447 195.583 316.131 197.06 315.499 198.325C314.867 199.589 313.979 200.572 312.836 201.276C311.692 201.979 310.353 202.33 308.819 202.33ZM308.83 199.656C309.824 199.656 310.648 199.393 311.301 198.868C311.955 198.342 312.438 197.643 312.75 196.769C313.07 195.896 313.23 194.933 313.23 193.882C313.23 192.838 313.07 191.879 312.75 191.006C312.438 190.125 311.955 189.418 311.301 188.886C310.648 188.353 309.824 188.087 308.83 188.087C307.828 188.087 306.998 188.353 306.337 188.886C305.684 189.418 305.197 190.125 304.877 191.006C304.565 191.879 304.409 192.838 304.409 193.882C304.409 194.933 304.565 195.896 304.877 196.769C305.197 197.643 305.684 198.342 306.337 198.868C306.998 199.393 307.828 199.656 308.83 199.656ZM332.265 189.631L329.378 190.143C329.257 189.773 329.065 189.422 328.802 189.088C328.547 188.754 328.199 188.481 327.758 188.268C327.318 188.055 326.768 187.948 326.107 187.948C325.205 187.948 324.452 188.151 323.849 188.555C323.245 188.953 322.943 189.468 322.943 190.1C322.943 190.647 323.145 191.087 323.55 191.421C323.955 191.755 324.608 192.028 325.51 192.241L328.11 192.838C329.616 193.186 330.738 193.722 331.476 194.447C332.215 195.171 332.584 196.112 332.584 197.27C332.584 198.25 332.3 199.124 331.732 199.891C331.171 200.651 330.386 201.247 329.378 201.68C328.376 202.114 327.215 202.33 325.894 202.33C324.062 202.33 322.567 201.94 321.409 201.158C320.251 200.37 319.541 199.251 319.278 197.803L322.357 197.334C322.549 198.136 322.943 198.744 323.54 199.156C324.136 199.56 324.914 199.763 325.873 199.763C326.917 199.763 327.751 199.546 328.376 199.113C329.001 198.673 329.314 198.136 329.314 197.504C329.314 196.993 329.122 196.563 328.738 196.215C328.362 195.867 327.783 195.604 327.002 195.427L324.232 194.82C322.705 194.472 321.576 193.918 320.844 193.158C320.12 192.398 319.758 191.435 319.758 190.271C319.758 189.305 320.028 188.46 320.567 187.735C321.107 187.011 321.853 186.446 322.805 186.041C323.756 185.629 324.846 185.423 326.075 185.423C327.844 185.423 329.236 185.807 330.251 186.574C331.267 187.334 331.938 188.353 332.265 189.631ZM343.725 185.636V188.193H334.787V185.636H343.725ZM337.184 181.716H340.369V197.195C340.369 197.813 340.462 198.278 340.646 198.591C340.831 198.896 341.069 199.106 341.36 199.219C341.658 199.326 341.982 199.379 342.33 199.379C342.585 199.379 342.809 199.362 343.001 199.326C343.192 199.29 343.342 199.262 343.448 199.241L344.023 201.872C343.839 201.943 343.576 202.014 343.235 202.085C342.894 202.163 342.468 202.206 341.957 202.213C341.119 202.227 340.337 202.078 339.613 201.766C338.888 201.453 338.303 200.97 337.855 200.317C337.408 199.663 337.184 198.843 337.184 197.856V181.716ZM355.444 180.182H359.439L366.385 197.142H366.641L373.587 180.182H377.582V202H374.45V186.212H374.247L367.812 201.968H365.213L358.778 186.201H358.576V202H355.444V180.182ZM392.478 195.214V185.636H395.674V202H392.542V199.166H392.371C391.995 200.04 391.391 200.768 390.56 201.35C389.736 201.925 388.71 202.213 387.481 202.213C386.43 202.213 385.5 201.982 384.69 201.521C383.888 201.052 383.256 200.359 382.794 199.443C382.339 198.527 382.112 197.394 382.112 196.045V185.636H385.297V195.661C385.297 196.776 385.606 197.664 386.224 198.325C386.842 198.985 387.645 199.315 388.632 199.315C389.229 199.315 389.822 199.166 390.411 198.868C391.008 198.57 391.501 198.119 391.892 197.515C392.29 196.911 392.485 196.144 392.478 195.214ZM399.954 202V185.636H403.033V188.236H403.203C403.501 187.355 404.027 186.663 404.78 186.158C405.54 185.647 406.399 185.391 407.358 185.391C407.557 185.391 407.791 185.398 408.061 185.413C408.338 185.427 408.555 185.445 408.711 185.466V188.513C408.583 188.477 408.356 188.438 408.029 188.396C407.702 188.346 407.376 188.321 407.049 188.321C406.296 188.321 405.625 188.481 405.036 188.8C404.453 189.113 403.991 189.55 403.651 190.111C403.31 190.665 403.139 191.297 403.139 192.007V202H399.954ZM416.083 202.362C415.046 202.362 414.109 202.17 413.271 201.787C412.433 201.396 411.768 200.832 411.278 200.093C410.795 199.354 410.554 198.449 410.554 197.376C410.554 196.453 410.732 195.693 411.087 195.097C411.442 194.5 411.921 194.028 412.525 193.68C413.129 193.332 413.803 193.069 414.549 192.891C415.295 192.714 416.055 192.579 416.829 192.487C417.809 192.373 418.604 192.281 419.215 192.21C419.826 192.131 420.27 192.007 420.547 191.837C420.824 191.666 420.962 191.389 420.962 191.006V190.931C420.962 190.001 420.7 189.28 420.174 188.768C419.656 188.257 418.881 188.001 417.852 188.001C416.779 188.001 415.934 188.239 415.316 188.715C414.705 189.184 414.283 189.706 414.048 190.281L411.055 189.599C411.41 188.605 411.928 187.803 412.61 187.192C413.299 186.574 414.091 186.126 414.986 185.849C415.881 185.565 416.822 185.423 417.809 185.423C418.462 185.423 419.155 185.501 419.886 185.658C420.625 185.807 421.314 186.084 421.953 186.489C422.599 186.893 423.129 187.472 423.54 188.225C423.952 188.971 424.158 189.94 424.158 191.134V202H421.048V199.763H420.92C420.714 200.175 420.405 200.58 419.993 200.977C419.581 201.375 419.052 201.705 418.406 201.968C417.759 202.231 416.985 202.362 416.083 202.362ZM416.776 199.805C417.656 199.805 418.409 199.631 419.034 199.283C419.666 198.935 420.146 198.481 420.472 197.92C420.806 197.352 420.973 196.744 420.973 196.098V193.989C420.859 194.102 420.639 194.209 420.312 194.308C419.993 194.401 419.627 194.482 419.215 194.553C418.803 194.617 418.402 194.678 418.011 194.734C417.621 194.784 417.294 194.827 417.031 194.862C416.413 194.94 415.849 195.072 415.337 195.256C414.833 195.441 414.428 195.707 414.123 196.055C413.825 196.396 413.675 196.851 413.675 197.419C413.675 198.207 413.967 198.804 414.549 199.209C415.131 199.607 415.874 199.805 416.776 199.805ZM431.586 192.284V202H428.401V180.182H431.544V188.3H431.746C432.13 187.419 432.716 186.719 433.504 186.201C434.292 185.683 435.322 185.423 436.594 185.423C437.716 185.423 438.696 185.654 439.534 186.116C440.379 186.577 441.032 187.266 441.494 188.183C441.963 189.092 442.197 190.228 442.197 191.592V202H439.012V191.975C439.012 190.775 438.703 189.844 438.085 189.184C437.467 188.516 436.608 188.183 435.507 188.183C434.754 188.183 434.079 188.342 433.483 188.662C432.893 188.982 432.428 189.45 432.087 190.068C431.753 190.679 431.586 191.418 431.586 192.284ZM460.513 202.32C459.192 202.32 458.013 201.982 456.976 201.308C455.946 200.626 455.137 199.656 454.547 198.399C453.965 197.135 453.674 195.619 453.674 193.85C453.674 192.082 453.968 190.569 454.558 189.312C455.154 188.055 455.971 187.092 457.008 186.425C458.045 185.757 459.221 185.423 460.534 185.423C461.55 185.423 462.367 185.594 462.985 185.935C463.61 186.268 464.093 186.659 464.434 187.107C464.782 187.554 465.051 187.948 465.243 188.289H465.435V180.182H468.62V202H465.51V199.454H465.243C465.051 199.802 464.775 200.2 464.412 200.647C464.057 201.094 463.567 201.485 462.942 201.819C462.317 202.153 461.507 202.32 460.513 202.32ZM461.216 199.603C462.132 199.603 462.907 199.362 463.539 198.879C464.178 198.388 464.661 197.71 464.988 196.844C465.321 195.977 465.488 194.969 465.488 193.818C465.488 192.682 465.325 191.687 464.998 190.835C464.672 189.983 464.192 189.319 463.56 188.843C462.928 188.367 462.147 188.129 461.216 188.129C460.257 188.129 459.458 188.378 458.819 188.875C458.18 189.372 457.697 190.05 457.37 190.91C457.051 191.769 456.891 192.739 456.891 193.818C456.891 194.912 457.054 195.896 457.381 196.769C457.708 197.643 458.191 198.335 458.83 198.847C459.476 199.351 460.272 199.603 461.216 199.603ZM477.929 202.362C476.892 202.362 475.954 202.17 475.116 201.787C474.278 201.396 473.614 200.832 473.124 200.093C472.641 199.354 472.4 198.449 472.4 197.376C472.4 196.453 472.577 195.693 472.932 195.097C473.287 194.5 473.767 194.028 474.371 193.68C474.974 193.332 475.649 193.069 476.395 192.891C477.14 192.714 477.9 192.579 478.675 192.487C479.655 192.373 480.45 192.281 481.061 192.21C481.672 192.131 482.116 192.007 482.393 191.837C482.67 191.666 482.808 191.389 482.808 191.006V190.931C482.808 190.001 482.545 189.28 482.02 188.768C481.501 188.257 480.727 188.001 479.697 188.001C478.625 188.001 477.78 188.239 477.162 188.715C476.551 189.184 476.128 189.706 475.894 190.281L472.9 189.599C473.256 188.605 473.774 187.803 474.456 187.192C475.145 186.574 475.937 186.126 476.831 185.849C477.726 185.565 478.667 185.423 479.655 185.423C480.308 185.423 481.001 185.501 481.732 185.658C482.471 185.807 483.16 186.084 483.799 186.489C484.445 186.893 484.974 187.472 485.386 188.225C485.798 188.971 486.004 189.94 486.004 191.134V202H482.893V199.763H482.765C482.559 200.175 482.251 200.58 481.839 200.977C481.427 201.375 480.898 201.705 480.251 201.968C479.605 202.231 478.831 202.362 477.929 202.362ZM478.621 199.805C479.502 199.805 480.255 199.631 480.88 199.283C481.512 198.935 481.991 198.481 482.318 197.92C482.652 197.352 482.819 196.744 482.819 196.098V193.989C482.705 194.102 482.485 194.209 482.158 194.308C481.839 194.401 481.473 194.482 481.061 194.553C480.649 194.617 480.248 194.678 479.857 194.734C479.466 194.784 479.14 194.827 478.877 194.862C478.259 194.94 477.694 195.072 477.183 195.256C476.679 195.441 476.274 195.707 475.969 196.055C475.67 196.396 475.521 196.851 475.521 197.419C475.521 198.207 475.812 198.804 476.395 199.209C476.977 199.607 477.719 199.805 478.621 199.805ZM493.432 192.284V202H490.247V185.636H493.304V188.3H493.507C493.883 187.433 494.473 186.737 495.275 186.212C496.085 185.686 497.104 185.423 498.333 185.423C499.448 185.423 500.424 185.658 501.262 186.126C502.1 186.588 502.75 187.277 503.212 188.193C503.674 189.109 503.904 190.242 503.904 191.592V202H500.719V191.975C500.719 190.789 500.41 189.862 499.792 189.195C499.174 188.52 498.326 188.183 497.246 188.183C496.507 188.183 495.85 188.342 495.275 188.662C494.707 188.982 494.256 189.45 493.922 190.068C493.596 190.679 493.432 191.418 493.432 192.284ZM518.215 202H514.72L522.572 180.182H526.375L534.227 202H530.732L524.564 184.145H524.394L518.215 202ZM518.801 193.456H530.136V196.226H518.801V193.456ZM537.122 202V185.636H540.179V188.3H540.382C540.723 187.398 541.28 186.695 542.054 186.19C542.828 185.679 543.755 185.423 544.835 185.423C545.929 185.423 546.845 185.679 547.583 186.19C548.329 186.702 548.88 187.405 549.235 188.3H549.405C549.796 187.426 550.417 186.73 551.27 186.212C552.122 185.686 553.137 185.423 554.316 185.423C555.801 185.423 557.012 185.888 557.949 186.819C558.894 187.749 559.366 189.152 559.366 191.027V202H556.181V191.325C556.181 190.217 555.879 189.415 555.275 188.918C554.672 188.42 553.951 188.172 553.113 188.172C552.076 188.172 551.27 188.491 550.694 189.131C550.119 189.763 549.831 190.576 549.831 191.57V202H546.657V191.123C546.657 190.235 546.38 189.521 545.826 188.982C545.272 188.442 544.551 188.172 543.663 188.172C543.059 188.172 542.502 188.332 541.99 188.651C541.486 188.964 541.078 189.401 540.765 189.962C540.46 190.523 540.307 191.173 540.307 191.911V202H537.122ZM568.398 202.362C567.361 202.362 566.423 202.17 565.585 201.787C564.747 201.396 564.083 200.832 563.593 200.093C563.11 199.354 562.868 198.449 562.868 197.376C562.868 196.453 563.046 195.693 563.401 195.097C563.756 194.5 564.236 194.028 564.839 193.68C565.443 193.332 566.118 193.069 566.863 192.891C567.609 192.714 568.369 192.579 569.143 192.487C570.123 192.373 570.919 192.281 571.53 192.21C572.14 192.131 572.584 192.007 572.861 191.837C573.138 191.666 573.277 191.389 573.277 191.006V190.931C573.277 190.001 573.014 189.28 572.488 188.768C571.97 188.257 571.196 188.001 570.166 188.001C569.094 188.001 568.248 188.239 567.631 188.715C567.02 189.184 566.597 189.706 566.363 190.281L563.369 189.599C563.724 188.605 564.243 187.803 564.925 187.192C565.613 186.574 566.405 186.126 567.3 185.849C568.195 185.565 569.136 185.423 570.123 185.423C570.777 185.423 571.469 185.501 572.201 185.658C572.939 185.807 573.628 186.084 574.268 186.489C574.914 186.893 575.443 187.472 575.855 188.225C576.267 188.971 576.473 189.94 576.473 191.134V202H573.362V199.763H573.234C573.028 200.175 572.719 200.58 572.307 200.977C571.895 201.375 571.366 201.705 570.72 201.968C570.074 202.231 569.3 202.362 568.398 202.362ZM569.09 199.805C569.971 199.805 570.724 199.631 571.349 199.283C571.981 198.935 572.46 198.481 572.787 197.92C573.121 197.352 573.287 196.744 573.287 196.098V193.989C573.174 194.102 572.954 194.209 572.627 194.308C572.307 194.401 571.942 194.482 571.53 194.553C571.118 194.617 570.716 194.678 570.326 194.734C569.935 194.784 569.608 194.827 569.346 194.862C568.728 194.94 568.163 195.072 567.652 195.256C567.148 195.441 566.743 195.707 566.437 196.055C566.139 196.396 565.99 196.851 565.99 197.419C565.99 198.207 566.281 198.804 566.863 199.209C567.446 199.607 568.188 199.805 569.09 199.805ZM583.901 192.284V202H580.716V185.636H583.773V188.3H583.975C584.352 187.433 584.941 186.737 585.744 186.212C586.554 185.686 587.573 185.423 588.801 185.423C589.917 185.423 590.893 185.658 591.731 186.126C592.569 186.588 593.219 187.277 593.681 188.193C594.142 189.109 594.373 190.242 594.373 191.592V202H591.188V191.975C591.188 190.789 590.879 189.862 590.261 189.195C589.643 188.52 588.794 188.183 587.715 188.183C586.976 188.183 586.319 188.342 585.744 188.662C585.176 188.982 584.725 189.45 584.391 190.068C584.064 190.679 583.901 191.418 583.901 192.284ZM602.662 180.182L602.385 195.725H599.434L599.157 180.182H602.662ZM600.914 202.202C600.325 202.202 599.821 201.996 599.402 201.585C598.983 201.165 598.777 200.661 598.784 200.072C598.777 199.489 598.983 198.992 599.402 198.58C599.821 198.161 600.325 197.952 600.914 197.952C601.49 197.952 601.987 198.161 602.406 198.58C602.825 198.992 603.038 199.489 603.045 200.072C603.038 200.462 602.935 200.821 602.736 201.148C602.544 201.467 602.289 201.723 601.969 201.915C601.65 202.107 601.298 202.202 600.914 202.202Z" fill="black"/>
</svg>
